<svg  viewBox="0 0 24 24" fill="none" xmlns="http://www.w3.org/2000/svg">
<circle cx="11.98" cy="11.98" r="11.98" fill="black"/>
<mask id="path-2-inside-1" fill="white">
<path d="M11.9803 19.0451C8.07829 19.0451 4.91512 15.8819 4.91512 11.9799C4.91512 8.07797 8.07829 4.91479 11.9803 4.91479C15.8822 4.91479 19.0454 8.07797 19.0454 11.9799C19.0454 15.8819 15.8822 19.0451 11.9803 19.0451ZM11.9803 7.69647C9.61457 7.69647 7.69679 9.61424 7.69679 11.9799C7.69679 14.3456 9.61457 16.2634 11.9803 16.2634C14.346 16.2634 16.2637 14.3456 16.2637 11.9799C16.2637 9.61424 14.346 7.69647 11.9803 7.69647Z"/>
</mask>
<path d="M11.9803 19.0451C8.07829 19.0451 4.91512 15.8819 4.91512 11.9799C4.91512 8.07797 8.07829 4.91479 11.9803 4.91479C15.8822 4.91479 19.0454 8.07797 19.0454 11.9799C19.0454 15.8819 15.8822 19.0451 11.9803 19.0451ZM11.9803 7.69647C9.61457 7.69647 7.69679 9.61424 7.69679 11.9799C7.69679 14.3456 9.61457 16.2634 11.9803 16.2634C14.346 16.2634 16.2637 14.3456 16.2637 11.9799C16.2637 9.61424 14.346 7.69647 11.9803 7.69647Z" stroke="#0047FF" stroke-width="7.18802" mask="url(#path-2-inside-1)"/>
<mask id="path-3-inside-2" fill="white">
<path d="M19.0454 11.9799C19.0454 11.0521 18.8627 10.1334 18.5076 9.27623C18.1526 8.41904 17.6321 7.64019 16.9761 6.98413C16.32 6.32807 15.5412 5.80765 14.684 5.4526C13.8268 5.09754 12.9081 4.91479 11.9803 4.91479L11.9803 7.69647C12.5428 7.69647 13.0998 7.80726 13.6195 8.02253C14.1392 8.23779 14.6114 8.55331 15.0091 8.95107C15.4069 9.34882 15.7224 9.82103 15.9377 10.3407C16.1529 10.8604 16.2637 11.4174 16.2637 11.9799L19.0454 11.9799Z"/>
</mask>
<path d="M19.0454 11.9799C19.0454 11.0521 18.8627 10.1334 18.5076 9.27623C18.1526 8.41904 17.6321 7.64019 16.9761 6.98413C16.32 6.32807 15.5412 5.80765 14.684 5.4526C13.8268 5.09754 12.9081 4.91479 11.9803 4.91479L11.9803 7.69647C12.5428 7.69647 13.0998 7.80726 13.6195 8.02253C14.1392 8.23779 14.6114 8.55331 15.0091 8.95107C15.4069 9.34882 15.7224 9.82103 15.9377 10.3407C16.1529 10.8604 16.2637 11.4174 16.2637 11.9799L19.0454 11.9799Z" stroke="white" stroke-width="7.18802" mask="url(#path-3-inside-2)"/>
</svg>
