<svg  viewBox="0 0 19 90" fill="none" xmlns="http://www.w3.org/2000/svg">
<path d="M0.0700683 56.754L0.0700684 57.9373L18.0401 57.9373L18.0401 56.754L0.0700683 56.754Z" fill="#070607"/>
<path d="M0.0700683 45.0901L0.0700684 45.9353L18.0401 45.9353L18.0401 45.0901L0.0700683 45.0901Z" fill="#070607"/>
<path d="M0.0700682 49.8234L0.0700684 53.5422L18.0401 53.5422L18.0401 49.8234L0.0700682 49.8234Z" fill="#070607"/>
<path d="M0.0700682 40.3571L0.0700684 43.3998L18.0401 43.3998L18.0401 40.3571L0.0700682 40.3571Z" fill="#070607"/>
<path d="M0.0700683 87.1812L0.0700684 88.1954L18.0401 88.1954L18.0401 87.1812L0.0700683 87.1812Z" fill="#070607"/>
<path d="M0.0700682 82.1099L0.0700684 84.6455L18.0401 84.6455L18.0401 82.1099L0.0700682 82.1099Z" fill="#070607"/>
<path d="M0.0700682 75.3484L0.0700684 79.7434L18.0401 79.7434L18.0401 75.3484L0.0700682 75.3484Z" fill="#070607"/>
<path d="M0.0700683 72.6436L0.0700684 73.8269L18.0401 73.8269L18.0401 72.6436L0.0700683 72.6436Z" fill="#070607"/>
<path d="M0.0700683 34.1027L0.0700684 36.1312L18.0401 36.1312L18.0401 34.1027L0.0700683 34.1027Z" fill="#070607"/>
<path d="M0.0700683 31.2288L0.0700684 32.243L18.0401 32.243L18.0401 31.2288L0.0700683 31.2288Z" fill="#070607"/>
<path d="M0.0700682 26.1575L0.0700684 28.6931L18.0401 28.6931L18.0401 26.1575L0.0700682 26.1575Z" fill="#070607"/>
<path d="M0.0700682 19.3958L0.0700684 23.7909L18.0401 23.7909L18.0401 19.3958L0.0700682 19.3958Z" fill="#070607"/>
<path d="M0.0700683 16.5224L0.0700684 17.7057L18.0401 17.7057L18.0401 16.5224L0.0700683 16.5224Z" fill="#070607"/>
<path d="M0.0700683 62.6704L0.0700684 63.5156L18.0401 63.5156L18.0401 62.6704L0.0700683 62.6704Z" fill="#070607"/>
<path d="M0.0700683 65.037L0.0700684 67.2345L18.0401 67.2345L18.0401 65.037L0.0700683 65.037Z" fill="#070607"/>
<path d="M18.0178 1.5001L18.0178 0.654907L0.0477753 0.654908L0.0477753 1.5001L18.0178 1.5001Z" fill="#070607"/>
<path d="M18.0178 6.20508L18.0178 3.16235L0.0477753 3.16235L0.0477754 6.20508L18.0178 6.20508Z" fill="#070607"/>
<path d="M18.0178 12.5431L18.0178 10.5146L0.0477753 10.5146L0.0477754 12.5431L18.0178 12.5431Z" fill="#070607"/>
</svg>
