<svg width="65" height="16" viewBox="0 0 65 16" fill="none" xmlns="http://www.w3.org/2000/svg">
<path d="M4.38775 15.7349C3.10993 15.7349 2.12929 15.3932 1.44581 14.7097C0.777183 14.0262 0.442871 13.0456 0.442871 11.7678V3.96716C0.442871 2.68935 0.777183 1.7087 1.44581 1.02522C2.12929 0.341741 3.10993 0 4.38775 0H12.0769C13.3547 0 14.3354 0.341741 15.0189 1.02522C15.7023 1.7087 16.0441 2.68935 16.0441 3.96716V4.90324C16.0441 5.12611 15.9326 5.23755 15.7098 5.23755H14.0828C13.8599 5.23755 13.7485 5.12611 13.7485 4.90324V4.03403C13.7485 3.35054 13.5925 2.85279 13.2804 2.54077C12.9684 2.22874 12.4707 2.07273 11.7872 2.07273H4.67748C3.36995 2.07273 2.71619 2.7265 2.71619 4.03403V11.7009C2.71619 13.0084 3.36995 13.6622 4.67748 13.6622H11.7872C12.4707 13.6622 12.9684 13.5062 13.2804 13.1942C13.5925 12.8673 13.7485 12.3695 13.7485 11.7009V10.8094C13.7485 10.5865 13.8599 10.4751 14.0828 10.4751H15.7098C15.9326 10.4751 16.0441 10.5865 16.0441 10.8094V11.7678C16.0441 13.0456 15.7023 14.0262 15.0189 14.7097C14.3354 15.3932 13.3547 15.7349 12.0769 15.7349H4.38775Z" fill="white"/>
<path d="M26.7072 2.07273V13.6622H31.2761C31.499 13.6622 31.6105 13.7736 31.6105 13.9965V15.3338C31.6105 15.5566 31.499 15.6681 31.2761 15.6681H19.8427C19.6198 15.6681 19.5084 15.5566 19.5084 15.3338V13.9965C19.5084 13.7736 19.6198 13.6622 19.8427 13.6622H24.4116V2.07273H19.8427C19.6198 2.07273 19.5084 1.96129 19.5084 1.73842V0.401173C19.5084 0.178299 19.6198 0.0668614 19.8427 0.0668614H31.2761C31.499 0.0668614 31.6105 0.178299 31.6105 0.401173V1.73842C31.6105 1.96129 31.499 2.07273 31.2761 2.07273H26.7072Z" fill="white"/>
<path d="M48.8851 0.0668614C49.108 0.0668614 49.2194 0.178299 49.2194 0.401173V1.89443C49.2194 2.11731 49.108 2.22874 48.8851 2.22874H42.4218V15.3338C42.4218 15.5566 42.3103 15.6681 42.0875 15.6681H40.4828C40.2599 15.6681 40.1485 15.5566 40.1485 15.3338V2.22874H33.6851C33.4622 2.22874 33.3508 2.11731 33.3508 1.89443V0.401173C33.3508 0.178299 33.4622 0.0668614 33.6851 0.0668614H48.8851Z" fill="white"/>
<path d="M64.6657 0.0668614C64.8886 0.0668614 65 0.178299 65 0.401173V1.78299C65 2.00587 64.8886 2.11731 64.6657 2.11731H54.3689V7.02054H62.1026C62.3255 7.02054 62.4369 7.13198 62.4369 7.35485V8.75896C62.4369 8.98184 62.3255 9.09327 62.1026 9.09327H54.3689V15.3338C54.3689 15.5566 54.2575 15.6681 54.0346 15.6681H52.4076C52.1847 15.6681 52.0733 15.5566 52.0733 15.3338V0.401173C52.0733 0.178299 52.1847 0.0668614 52.4076 0.0668614H64.6657Z" fill="white"/>
</svg>
