<svg  viewBox="0 0 272 32" fill="none" xmlns="http://www.w3.org/2000/svg">
<path d="M2.7254 0.224052H0.900391V31.5151H2.7254V0.224052Z" fill="#070607"/>
<path d="M4.95596 0.224091H4.04346V31.5152H4.95596V0.224091Z" fill="#070607"/>
<path d="M7.7948 0.224091H6.57812V31.5152H7.7948V0.224091Z" fill="#070607"/>
<path d="M9.51849 0.224091H8.91016V31.5152H9.51849V0.224091Z" fill="#070607"/>
<path d="M13.4729 0.224091H11.0396V31.5152H13.4729V0.224091Z" fill="#070607"/>
<path d="M120.438 0.224091H118.613V31.5152H120.438V0.224091Z" fill="#070607"/>
<path d="M124.798 0.224091H123.885V31.5152H124.798V0.224091Z" fill="#070607"/>
<path d="M127.536 0.224091H126.319V31.5152H127.536V0.224091Z" fill="#070607"/>
<path d="M129.259 0.224091H128.651V31.5152H129.259V0.224091Z" fill="#070607"/>
<path d="M133.214 0.224091H130.78V31.5152H133.214V0.224091Z" fill="#070607"/>
<path d="M16.6156 0.224091H15.0947V31.5152H16.6156V0.224091Z" fill="#070607"/>
<path d="M18.238 0.224091H17.5283V31.5152H18.238V0.224091Z" fill="#070607"/>
<path d="M23.5099 0.224091H23.0029V31.5152H23.5099V0.224091Z" fill="#070607"/>
<path d="M21.4821 0.224091H20.1641V31.5152H21.4821V0.224091Z" fill="#070607"/>
<path d="M26.3494 0.224091H24.5244V31.5152H26.3494V0.224091Z" fill="#070607"/>
<path d="M54.1296 0.224091H53.4199V31.5152H54.1296V0.224091Z" fill="#070607"/>
<path d="M61.1256 0.224091H60.6187V31.5152H61.1256V0.224091Z" fill="#070607"/>
<path d="M58.2867 0.224091H56.0562V31.5152H58.2867V0.224091Z" fill="#070607"/>
<path d="M63.9642 0.224091H62.1392V31.5152H63.9642V0.224091Z" fill="#070607"/>
<path d="M29.9989 0.224091H29.0864V31.5152H29.9989V0.224091Z" fill="#070607"/>
<path d="M34.1556 0.224091H32.939V31.5152H34.1556V0.224091Z" fill="#070607"/>
<path d="M35.8798 0.224091H35.2715V31.5152H35.8798V0.224091Z" fill="#070607"/>
<path d="M38.9212 0.224091H37.4004V31.5152H38.9212V0.224091Z" fill="#070607"/>
<path d="M42.9769 0.224091H40.3408V31.5152H42.9769V0.224091Z" fill="#070607"/>
<path d="M44.5994 0.224091H43.8896V31.5152H44.5994V0.224091Z" fill="#070607"/>
<path d="M67.7157 0.224091H66.499V31.5152H67.7157V0.224091Z" fill="#070607"/>
<path d="M69.4394 0.224091H68.8311V31.5152H69.4394V0.224091Z" fill="#070607"/>
<path d="M72.4813 0.224091H70.9604V31.5152H72.4813V0.224091Z" fill="#070607"/>
<path d="M76.537 0.224091H73.9009V31.5152H76.537V0.224091Z" fill="#070607"/>
<path d="M78.2605 0.224091H77.5508V31.5152H78.2605V0.224091Z" fill="#070607"/>
<path d="M50.5812 0.224091H50.0742V31.5152H50.5812V0.224091Z" fill="#070607"/>
<path d="M49.1613 0.224091H47.8433V31.5152H49.1613V0.224091Z" fill="#070607"/>
<path d="M137.167 0.224091H136.255V31.5152H137.167V0.224091Z" fill="#070607"/>
<path d="M141.223 0.224091H140.006V31.5152H141.223V0.224091Z" fill="#070607"/>
<path d="M142.947 0.224091H142.338V31.5152H142.947V0.224091Z" fill="#070607"/>
<path d="M145.989 0.224091H144.468V31.5152H145.989V0.224091Z" fill="#070607"/>
<path d="M150.044 0.224091H147.408V31.5152H150.044V0.224091Z" fill="#070607"/>
<path d="M151.767 0.224091H151.058V31.5152H151.767V0.224091Z" fill="#070607"/>
<path d="M94.1721 31.4768H94.8818V0.185726H94.1721V31.4768Z" fill="#070607"/>
<path d="M87.2704 31.4768H87.7773V0.185726H87.2704V31.4768Z" fill="#070607"/>
<path d="M90.1205 31.4768H92.3511V0.185726H90.1205V31.4768Z" fill="#070607"/>
<path d="M84.4484 31.4768H86.2734V0.185726H84.4484V31.4768Z" fill="#070607"/>
<path d="M114.289 31.4768H115.505V0.185726H114.289V31.4768Z" fill="#070607"/>
<path d="M112.507 31.4768H113.116V0.185726H112.507V31.4768Z" fill="#070607"/>
<path d="M109.43 31.4768H110.951V0.185726H109.43V31.4768Z" fill="#070607"/>
<path d="M105.425 31.4768H108.062V0.185726H105.425V31.4768Z" fill="#070607"/>
<path d="M103.711 31.4768H104.42V0.185726H103.711V31.4768Z" fill="#070607"/>
<path d="M80.6471 31.4768H81.8638V0.185726H80.6471V31.4768Z" fill="#070607"/>
<path d="M97.8012 31.4768H98.3081V0.185726H97.8012V31.4768Z" fill="#070607"/>
<path d="M99.1507 31.4768H100.469V0.185726H99.1507V31.4768Z" fill="#070607"/>
<path d="M177.013 0.224091H176.304V31.5152H177.013V0.224091Z" fill="#070607"/>
<path d="M184.009 0.224091H183.502V31.5152H184.009V0.224091Z" fill="#070607"/>
<path d="M181.17 0.224091H178.939V31.5152H181.17V0.224091Z" fill="#070607"/>
<path d="M186.848 0.224091H185.023V31.5152H186.848V0.224091Z" fill="#070607"/>
<path d="M157.04 0.224091H155.823V31.5152H157.04V0.224091Z" fill="#070607"/>
<path d="M158.763 0.224091H158.155V31.5152H158.763V0.224091Z" fill="#070607"/>
<path d="M161.805 0.224091H160.284V31.5152H161.805V0.224091Z" fill="#070607"/>
<path d="M165.861 0.224091H163.225V31.5152H165.861V0.224091Z" fill="#070607"/>
<path d="M167.483 0.224091H166.773V31.5152H167.483V0.224091Z" fill="#070607"/>
<path d="M190.6 0.224091H189.383V31.5152H190.6V0.224091Z" fill="#070607"/>
<path d="M192.425 0.224091H191.816V31.5152H192.425V0.224091Z" fill="#070607"/>
<path d="M195.365 0.224091H193.844V31.5152H195.365V0.224091Z" fill="#070607"/>
<path d="M199.522 0.224091H196.886V31.5152H199.522V0.224091Z" fill="#070607"/>
<path d="M201.144 0.224091H200.434V31.5152H201.144V0.224091Z" fill="#070607"/>
<path d="M173.465 0.224091H172.958V31.5152H173.465V0.224091Z" fill="#070607"/>
<path d="M172.046 0.224091H170.728V31.5152H172.046V0.224091Z" fill="#070607"/>
<path d="M217.083 31.4768H217.792V0.185726H217.083V31.4768Z" fill="#070607"/>
<path d="M210.181 31.4768H210.688V0.185726H210.181V31.4768Z" fill="#070607"/>
<path d="M213.031 31.4768H215.262V0.185726H213.031V31.4768Z" fill="#070607"/>
<path d="M207.257 31.4768H209.083V0.185726H207.257V31.4768Z" fill="#070607"/>
<path d="M235.418 31.4768H236.027V0.185726H235.418V31.4768Z" fill="#070607"/>
<path d="M232.341 31.4768H233.862V0.185726H232.341V31.4768Z" fill="#070607"/>
<path d="M228.235 31.4768H230.871V0.185726H228.235V31.4768Z" fill="#070607"/>
<path d="M226.621 31.4768H227.331V0.185726H226.621V31.4768Z" fill="#070607"/>
<path d="M203.557 31.4768H204.774V0.185726H203.557V31.4768Z" fill="#070607"/>
<path d="M220.712 31.4768H221.219V0.185726H220.712V31.4768Z" fill="#070607"/>
<path d="M222.061 31.4768H223.379V0.185726H222.061V31.4768Z" fill="#070607"/>
<path d="M270.263 31.4768H270.872V0.185726H270.263V31.4768Z" fill="#070607"/>
<path d="M267.186 31.4768H268.707V0.185726H267.186V31.4768Z" fill="#070607"/>
<path d="M263.181 31.4768H265.817V0.185726H263.181V31.4768Z" fill="#070607"/>
<path d="M261.467 31.4768H262.176V0.185726H261.467V31.4768Z" fill="#070607"/>
<path d="M245.552 0.224091H244.843V31.5152H245.552V0.224091Z" fill="#070607"/>
<path d="M252.447 0.224091H251.94V31.5152H252.447V0.224091Z" fill="#070607"/>
<path d="M249.608 0.224091H247.377V31.5152H249.608V0.224091Z" fill="#070607"/>
<path d="M255.286 0.224091H253.461V31.5152H255.286V0.224091Z" fill="#070607"/>
<path d="M259.037 0.224091H257.821V31.5152H259.037V0.224091Z" fill="#070607"/>
<path d="M241.902 0.224091H241.396V31.5152H241.902V0.224091Z" fill="#070607"/>
<path d="M240.483 0.224091H239.165V31.5152H240.483V0.224091Z" fill="#070607"/>
</svg>
