<svg  viewBox="0 0 63 6" fill="none" xmlns="http://www.w3.org/2000/svg">
<g clip-path="url(#clip0)">
<path d="M64.1067 0L62.1333 0V6H64.1067V0Z" fill="white"/>
<path d="M3.04078 0L1.06738 0L1.06738 6H3.04078L3.04078 0Z" fill="white"/>
<path d="M7.09735 0L5.78174 0L5.78174 6H7.09735L7.09735 0Z" fill="white"/>
<path d="M8.96102 0L8.30322 0L8.30322 6H8.96102L8.96102 0Z" fill="white"/>
<path d="M12.25 0L10.6055 0L10.6055 6H12.25V0Z" fill="white"/>
<path d="M16.6351 0L13.7847 0L13.7847 6L16.6351 6V0Z" fill="white"/>
<path d="M18.4989 0L17.7314 0V6H18.4989V0Z" fill="white"/>
<path d="M35.7047 5.99268H36.4722V-0.00732565H35.7047V5.99268Z" fill="white"/>
<path d="M28.2419 5.99268H28.79V-0.00732565H28.2419V5.99268Z" fill="white"/>
<path d="M31.3234 5.99268H33.7354V-0.00732565H31.3234V5.99268Z" fill="white"/>
<path d="M25.1902 5.99268H27.1636V-0.00732565H25.1902V5.99268Z" fill="white"/>
<path d="M57.4568 5.99268H58.7725V-0.00732565H57.4568V5.99268Z" fill="white"/>
<path d="M55.5312 5.99268H56.189V-0.00732565H55.5312V5.99268Z" fill="white"/>
<path d="M52.2037 5.99268H53.8481V-0.00732517H52.2037V5.99268Z" fill="white"/>
<path d="M47.8732 5.99268L50.7236 5.99268V-0.00732422L47.8732 -0.00732422V5.99268Z" fill="white"/>
<path d="M46.0187 5.99268H46.7861V-0.00732422H46.0187V5.99268Z" fill="white"/>
<path d="M21.0799 5.99268H22.3955V-0.00732613H21.0799V5.99268Z" fill="white"/>
<path d="M39.6291 5.99268H40.1772V-0.00732517H39.6291V5.99268Z" fill="white"/>
<path d="M41.0879 5.99268H42.5132V-0.00732517H41.0879V5.99268Z" fill="white"/>
</g>
<defs>
<clipPath id="clip0">
<rect width="63" height="6" fill="white"/>
</clipPath>
</defs>
</svg>
